<?xml version="1.0" standalone="no"?>
<!DOCTYPE svg PUBLIC "-//W3C//DTD SVG 20010904//EN"
 "http://www.w3.org/TR/2001/REC-SVG-20010904/DTD/svg10.dtd">
<svg version="1.0" xmlns="http://www.w3.org/2000/svg"
 width="300.000000pt" height="307.000000pt" viewBox="0 0 300.000000 307.000000"
 preserveAspectRatio="xMidYMid meet">
<metadata>
Created by potrace 1.10, written by Peter Selinger 2001-2011
</metadata>
<g transform="translate(0.000000,307.000000) scale(0.100000,-0.100000)"
fill="#000000" stroke="none">
<path d="M1400 2937 c-275 -213 -376 -398 -318 -585 16 -54 30 -23 17 38 -27
128 24 252 166 395 97 99 207 185 234 185 37 0 214 -149 294 -247 96 -118 134
-241 109 -351 -12 -50 2 -67 16 -20 45 146 0 276 -146 430 -69 71 -255 228
-273 228 -2 0 -47 -33 -99 -73z"/>
<path d="M1468 2773 c-10 -2 -18 -9 -18 -14 0 -5 -6 -9 -13 -9 -22 0 -129 -78
-174 -127 -85 -92 -132 -233 -102 -306 14 -31 14 -30 20 54 5 71 11 96 39 147
40 75 125 157 215 207 l65 37 65 -37 c96 -53 178 -134 217 -213 27 -54 34 -81
37 -146 3 -73 4 -78 17 -55 35 63 -9 212 -90 306 -32 38 -125 107 -183 137
-52 26 -62 28 -95 19z"/>
<path d="M844 2322 c-83 -29 -160 -82 -245 -167 -84 -85 -199 -229 -199 -250
0 -20 121 -174 196 -249 155 -157 323 -219 457 -171 28 9 37 10 34 1 -3 -6
-10 -37 -16 -68 -37 -174 95 -381 367 -575 l62 -45 63 45 c147 105 277 241
327 342 50 101 57 178 24 292 -6 21 -5 21 33 8 130 -47 297 13 445 160 78 77
208 240 208 260 0 24 -136 189 -224 272 -142 135 -274 185 -405 153 -28 -6
-51 -15 -51 -19 0 -4 51 -7 113 -7 105 1 116 -1 167 -28 114 -60 201 -142 324
-304 26 -35 46 -68 43 -75 -9 -24 -142 -184 -196 -235 -144 -137 -284 -189
-411 -152 -29 8 -38 7 -53 -8 -16 -16 -17 -26 -8 -80 23 -144 -23 -247 -178
-402 -110 -109 -190 -170 -225 -170 -58 0 -302 235 -354 342 -48 96 -55 138
-42 220 11 64 11 72 -6 89 -16 15 -25 17 -59 9 -176 -41 -347 55 -539 302
l-67 87 16 30 c16 32 169 215 202 241 138 114 189 135 325 134 60 0 108 2 108
6 0 12 -85 30 -137 30 -26 -1 -71 -9 -99 -18z"/>
<path d="M1195 2312 c6 -5 39 -13 75 -16 79 -7 122 -19 152 -41 19 -15 20 -16
3 -10 -56 22 -125 28 -152 15 -27 -14 -25 -14 44 -20 56 -5 80 -12 112 -34 47
-33 55 -51 47 -114 -3 -26 -2 -65 3 -87 8 -37 9 -36 10 28 0 37 5 67 11 67 6
0 11 -30 11 -67 1 -63 2 -65 10 -28 4 22 6 64 2 92 -4 39 -1 59 10 77 25 38
95 66 162 66 47 0 56 2 46 13 -16 16 -136 13 -157 -3 -8 -7 -17 -10 -21 -7
-13 14 92 49 160 54 112 8 109 26 -3 21 -110 -4 -159 -25 -200 -84 -21 -31
-25 -34 -31 -17 -10 26 -45 60 -82 80 -36 19 -230 33 -212 15z"/>
<path d="M988 2250 c-57 -10 -139 -50 -195 -96 -54 -44 -131 -148 -154 -207
l-18 -46 35 -71 c66 -131 184 -232 309 -265 76 -19 97 -19 123 3 11 9 29 23
39 30 10 7 13 10 7 7 -22 -10 -30 49 -18 128 8 43 23 51 16 9 -2 -16 1 -47 8
-71 8 -32 15 -41 28 -37 9 3 23 2 31 -3 10 -7 21 1 39 27 13 21 40 54 60 75
42 44 152 132 152 121 0 -24 -138 -175 -187 -205 -26 -16 -33 -27 -33 -53 0
-41 15 -56 57 -56 18 0 33 -5 33 -10 0 -7 -22 -10 -57 -8 -45 2 -57 6 -56 18
2 10 -1 9 -10 -4 -6 -11 -20 -28 -29 -38 -37 -38 -11 -171 51 -261 64 -94 220
-207 285 -207 41 0 163 79 226 147 74 78 111 153 117 237 5 53 2 67 -13 83
-11 11 -25 28 -31 39 -9 13 -12 14 -10 4 1 -11 -11 -16 -52 -18 -30 -2 -58 1
-62 5 -5 5 8 10 28 11 45 3 63 17 63 48 0 25 42 60 58 50 27 -17 48 68 33 133
-6 28 -6 40 0 34 18 -18 33 -141 21 -178 -5 -19 -7 -35 -3 -35 5 0 18 -9 31
-20 28 -24 47 -25 125 -5 125 33 239 131 310 267 l37 70 -18 41 c-47 107 -158
228 -247 270 -82 39 -161 51 -203 31 -19 -9 -34 -17 -34 -18 0 0 33 -1 73 -2
99 -1 168 -29 248 -103 61 -56 149 -184 149 -216 0 -31 -88 -160 -147 -215
-69 -65 -143 -99 -233 -107 l-55 -5 0 93 c0 112 -24 175 -81 209 -19 12 -34
23 -34 25 0 2 15 13 34 25 52 32 79 96 80 191 1 46 -3 79 -9 79 -5 0 -10 -8
-11 -17 -4 -72 -17 -152 -28 -172 -11 -20 -12 -12 -8 58 4 65 2 81 -9 81 -11
0 -14 -15 -14 -58 0 -44 -6 -68 -28 -104 -15 -26 -35 -51 -43 -56 -9 -5 -46
-7 -83 -5 -36 3 -82 0 -101 -5 -33 -10 -32 -11 15 -6 28 3 64 1 80 -4 l30 -9
-37 -8 c-34 -6 -76 -3 -133 11 -20 5 -20 5 0 -8 12 -7 58 -13 115 -14 52 -1
103 -5 113 -9 34 -14 70 -92 71 -155 0 -32 -2 -61 -5 -65 -4 -3 -33 22 -65 56
-77 80 -234 187 -234 159 0 -5 5 -10 11 -10 37 0 239 -196 239 -232 0 -27
-133 93 -213 192 l-28 35 28 -55 c15 -30 64 -92 108 -138 45 -45 79 -85 76
-87 -13 -14 -119 -3 -158 16 -61 30 -77 57 -70 122 4 28 2 70 -2 92 -8 37 -9
35 -10 -27 0 -38 -5 -68 -11 -68 -6 0 -10 30 -11 68 l-1 67 -9 -45 c-5 -25 -7
-66 -3 -93 8 -59 -9 -87 -69 -116 -39 -19 -145 -30 -158 -16 -3 2 31 41 76 87
70 72 156 201 143 213 -12 12 -143 -79 -212 -147 -44 -43 -82 -75 -85 -72 -3
3 -6 31 -6 62 0 44 7 68 27 103 15 26 35 50 45 54 10 4 61 8 113 9 57 1 103 7
115 14 20 13 20 13 0 8 -57 -14 -99 -17 -132 -11 l-38 8 30 9 c17 5 53 7 80 4
47 -5 48 -4 15 6 -19 5 -65 8 -101 5 -37 -2 -74 0 -83 5 -8 5 -28 30 -43 55
-21 37 -27 60 -28 105 0 40 -4 58 -12 58 -17 0 -22 -71 -9 -129 6 -22 5 -31
-2 -27 -23 14 -49 226 -28 226 6 0 -2 9 -19 20 -32 21 -36 22 -107 10z m97
-113 c0 -110 25 -173 81 -207 19 -12 34 -23 34 -25 0 -2 -15 -13 -34 -25 -57
-34 -81 -97 -81 -209 l0 -93 -55 5 c-88 8 -164 42 -230 104 -60 55 -150 185
-150 216 0 49 134 223 207 269 47 28 139 57 188 57 l40 1 0 -93z m435 -563 c8
-14 35 -38 59 -52 39 -23 60 -27 144 -30 l99 -4 -4 -63 c-8 -128 -104 -257
-253 -340 l-65 -37 -65 37 c-149 83 -244 209 -253 335 l-5 68 100 4 c84 3 105
7 144 30 24 14 51 38 59 52 7 14 16 26 20 26 4 0 13 -12 20 -26z"/>
<path d="M1686 2158 c-54 -55 -103 -116 -119 -148 -23 -44 -24 -50 -7 -30 90
105 128 146 163 171 24 18 46 44 53 64 6 19 9 35 6 35 -3 0 -46 -42 -96 -92z"/>
<path d="M1224 2215 c2 -18 20 -40 59 -70 30 -24 79 -72 107 -107 72 -87 77
-90 45 -30 -31 58 -114 154 -175 202 l-39 31 3 -26z"/>
<path d="M1166 2175 c12 -30 185 -183 242 -213 34 -18 62 -30 62 -25 0 4 -12
14 -28 20 -37 17 -161 131 -195 181 -19 27 -37 41 -57 44 -18 3 -26 0 -24 -7z"/>
<path d="M1759 2146 c-29 -47 -162 -171 -201 -188 -15 -7 -28 -17 -28 -21 0
-5 28 7 62 25 55 29 230 184 241 212 3 6 -7 11 -23 11 -20 0 -32 -9 -51 -39z"/>
<path d="M641 463 c-5 -10 -32 -74 -61 -143 -28 -69 -60 -132 -70 -142 -19
-15 -18 -16 25 -20 25 -2 45 0 45 4 0 5 -7 8 -15 8 -19 0 -18 15 4 64 17 38
18 39 71 39 53 0 54 -1 71 -39 23 -50 23 -62 2 -67 -10 -3 9 -5 42 -5 42 -1
54 2 39 8 -16 6 -34 45 -75 159 -30 83 -57 151 -61 151 -4 0 -11 -8 -17 -17z
m45 -155 c5 -15 -1 -18 -40 -18 -25 0 -46 4 -46 9 0 5 10 35 22 66 l21 56 19
-48 c10 -26 21 -56 24 -65z"/>
<path d="M903 473 c-30 -6 -73 -48 -73 -72 0 -39 23 -70 69 -93 63 -31 91 -57
91 -83 0 -36 -32 -57 -81 -53 -40 3 -44 6 -52 38 l-10 35 -9 -39 c-4 -21 -6
-42 -3 -45 4 -3 35 -6 70 -6 81 0 118 24 123 79 4 45 -14 69 -73 95 -52 23
-75 46 -75 76 0 34 26 55 66 55 30 0 37 -5 48 -31 10 -25 14 -28 20 -14 20 54
-20 76 -111 58z"/>
<path d="M1177 466 c-70 -25 -107 -80 -107 -158 0 -91 72 -158 170 -158 83 0
92 6 90 59 -3 64 -2 71 15 71 8 0 15 3 15 8 0 4 -25 7 -55 7 -56 0 -72 -8 -35
-18 17 -4 20 -14 20 -56 l0 -51 -48 0 c-82 0 -122 48 -122 145 0 96 48 150
128 143 32 -3 38 -7 49 -38 11 -36 17 -31 26 21 3 24 0 28 -32 33 -51 8 -71 7
-114 -8z"/>
<path d="M75 459 c16 -8 34 -48 69 -155 26 -80 53 -144 60 -144 6 0 29 52 50
115 20 63 41 113 45 111 4 -3 23 -55 42 -116 31 -101 49 -130 62 -97 2 6 26
72 52 145 36 100 53 136 69 142 15 6 6 9 -34 8 -30 0 -47 -2 -37 -5 9 -2 17
-10 17 -16 0 -14 -65 -215 -71 -222 -2 -2 -22 52 -43 121 -22 68 -44 124 -50
124 -6 0 -29 -56 -51 -125 -21 -68 -41 -122 -44 -119 -3 3 -20 53 -38 112 -30
98 -31 108 -16 120 14 10 7 12 -43 11 -46 0 -55 -2 -39 -10z"/>
<path d="M1408 460 c21 -9 22 -14 22 -144 0 -118 -2 -136 -17 -145 -13 -8 12
-10 90 -11 79 0 107 3 107 13 0 6 3 22 6 35 9 31 -10 28 -22 -5 -8 -24 -14
-26 -67 -27 l-57 -1 0 68 0 67 38 0 c30 0 41 -5 50 -22 9 -20 11 -15 11 32 0
43 -2 50 -9 33 -8 -19 -17 -23 -50 -23 l-40 0 0 60 0 60 54 0 c50 0 54 -2 61
-27 l8 -28 7 25 c16 51 17 50 -102 49 -78 0 -106 -3 -90 -9z"/>
<path d="M1667 460 c20 -8 22 -17 25 -129 3 -115 4 -122 30 -147 21 -21 39
-28 80 -31 106 -8 138 41 138 216 0 77 2 90 18 94 9 3 -8 5 -38 5 -42 1 -50
-1 -32 -8 21 -9 22 -15 22 -108 0 -55 -5 -113 -10 -129 -12 -32 -45 -53 -85
-53 -68 0 -85 35 -85 175 0 100 1 106 23 115 16 6 6 9 -43 9 -47 0 -59 -3 -43
-9z"/>
<path d="M2023 463 c15 -4 17 -20 17 -148 0 -128 -2 -144 -17 -148 -10 -3 7
-5 37 -6 42 0 51 2 38 10 -14 8 -18 23 -18 69 0 94 26 92 83 -6 36 -61 64 -84
103 -84 8 0 14 5 14 10 0 6 -6 10 -14 10 -7 0 -34 31 -59 69 l-46 70 34 20
c32 18 35 25 35 65 0 65 -21 76 -135 75 -49 -1 -82 -3 -72 -6z m124 -14 c34
-13 43 -26 43 -61 0 -39 -32 -68 -75 -68 l-35 0 0 63 c0 82 7 89 67 66z"/>
<path d="M2270 430 c0 -47 15 -53 24 -10 5 28 8 30 51 30 l45 0 0 -135 c0
-131 -1 -136 -22 -145 -17 -6 -6 -9 42 -8 36 0 55 3 43 5 -23 4 -23 7 -23 144
l0 139 40 0 c37 0 41 -3 47 -31 7 -36 23 -20 23 24 l0 27 -135 0 -135 0 0 -40z"/>
<path d="M2583 463 c15 -4 17 -21 17 -173 l0 -168 -31 -27 c-38 -31 -33 -43 9
-21 58 30 62 45 62 219 0 154 0 158 23 167 16 7 7 9 -38 8 -33 0 -52 -2 -42
-5z"/>
<path d="M2733 459 c15 -9 17 -27 17 -149 0 -118 -2 -140 -15 -140 -8 0 -15
-3 -15 -7 0 -5 49 -7 110 -5 l110 3 0 35 c0 41 -5 43 -23 8 -12 -23 -20 -26
-68 -27 l-54 -1 -3 67 -3 67 41 0 c33 0 43 -4 47 -20 9 -35 20 -21 19 25 -1
25 -4 45 -8 45 -5 0 -8 -7 -8 -15 0 -11 -12 -15 -45 -15 l-45 0 0 60 0 61 57
-3 c52 -3 58 -5 63 -28 5 -22 7 -23 13 -7 4 10 7 27 7 38 0 18 -8 19 -107 19
-78 -1 -103 -3 -90 -11z"/>
</g>
</svg>
